<svg version="1.2" baseProfile="tiny" xmlns="http://www.w3.org/2000/svg" viewBox="0 0 141.7 141.7"><path fill="#FFF" d="M132.3 35.6c19.5 33.9 7.7 77.2-26.2 96.7S28.9 140 9.4 106.1 1.7 28.9 35.6 9.4c34-19.5 77.3-7.7 96.7 26.2z"/><path fill="#2075BC" d="M125.7 39.4c17.4 30.3 6.9 69-23.4 86.4-30.3 17.4-69 6.9-86.4-23.4-17.3-30.3-6.8-69 23.5-86.4 30.3-17.4 69-6.9 86.3 23.4z"/><path fill="#1562AD" stroke="#1562AD" stroke-width="8.842" stroke-miterlimit="10" d="M115.2 46.5l-.1 44c0 .7-.2 1.5-.6 2.3-.7 1.5-1.8 2.9-2.9 3.4l-39.4 21.6c-1.8 1-5.1.8-6.8-.5L31.5 93.8c-1.8-1.3-3.5-4.4-3.5-6.6l-.2-42c0-.5.1-1.1.5-1.7.5-.9 1.5-1.6 2.4-1.9L68.9 24c2.2-.6 3.9-.7 6 0l37.2 18.6c1.6.5 3.1 2.4 3.1 3.9z"/><path fill="#1562AD" d="M115.2 46.5l-.1 44c0 .7-.2 1.5-.6 2.3-.7 1.5-1.8 2.9-2.9 3.4l-39.4 21.6c-1.8 1-5.1.8-6.8-.5L31.5 93.8c-1.8-1.3-3.5-4.4-3.5-6.6l-.2-42c0-.5.1-1.1.5-1.7.5-.9 1.5-1.6 2.4-1.9L68.9 24c2.2-.6 3.9-.7 6 0l37.2 18.6c1.6.5 3.1 2.4 3.1 3.9z"/><path fill="#FFF" d="M115.2 46.6l-.1 44c0 .7-.2 1.5-.6 2.3-.7 1.5-1.8 2.9-2.9 3.4l-39.4 21.6c-1.8 1-5.1.8-6.8-.5L31.5 93.9c-1.8-1.3-3.5-4.4-3.5-6.6l-.2-42c0-.5.1-1.1.5-1.7.5-.9 1.5-1.6 2.4-1.9L68.9 24c2.2-.6 3.9-.7 6 0l37.2 18.6c1.6.6 3.1 2.4 3.1 4zm-81 .9c-.9-.3-1-.1-.2.3l28.5 21.3c.8.5 1.6 1.6 1.7 2.5l4.4 39.4c.1 1 .2 1 .3 0l2.6-39.8c0-.9.8-2 1.7-2.3l35.1-21c.9-.3.8-.5-.1-.2l-39 15.6c-.9.2-2.5.2-3.4-.1L34.2 47.5z"/></svg>